<svg xmlns="http://www.w3.org/2000/svg" xmlns:xlink="http://www.w3.org/1999/xlink" version="1.1" width="256" height="256" viewBox="0 0 256 256" xml:space="preserve">

<defs>
</defs>
<g style="stroke: none; stroke-width: 0; stroke-dasharray: none; stroke-linecap: butt; stroke-linejoin: miter; stroke-miterlimit: 10; fill: none; fill-rule: nonzero; opacity: 1;" transform="translate(1.4065934065934016 1.4065934065934016) scale(2.81 2.81)" >
	<path d="M 62.4 67.938 c -3.275 0 -6.548 -1.508 -9.731 -4.524 c -5.232 -4.955 -10.105 -4.957 -15.337 0 c -6.367 6.032 -13.096 6.032 -19.463 0 c -5.231 -4.955 -10.104 -4.955 -15.336 0 c -0.603 0.569 -1.552 0.544 -2.121 -0.058 c -0.57 -0.602 -0.544 -1.551 0.057 -2.12 c 6.367 -6.03 13.096 -6.031 19.463 0 c 5.231 4.957 10.105 4.957 15.336 0 c 6.368 -6.031 13.099 -6.031 19.463 0 c 5.231 4.956 10.104 4.958 15.337 0 c 6.368 -6.032 13.099 -6.03 19.463 0 c 0.602 0.569 0.627 1.519 0.058 2.12 s -1.519 0.627 -2.12 0.058 c -5.23 -4.955 -10.104 -4.955 -15.338 0 C 68.948 66.429 65.674 67.937 62.4 67.938 z" style="stroke: none; stroke-width: 1; stroke-dasharray: none; stroke-linecap: butt; stroke-linejoin: miter; stroke-miterlimit: 10; fill: rgb(0,0,0); fill-rule: nonzero; opacity: 1;" transform=" matrix(1 0 0 1 0 0) " stroke-linecap="round" />
	<path d="M 62.4 77.824 c -3.275 0 -6.548 -1.508 -9.731 -4.524 c -5.232 -4.957 -10.105 -4.957 -15.337 0 c -6.367 6.032 -13.097 6.03 -19.463 0 c -5.231 -4.956 -10.104 -4.958 -15.336 0 c -0.603 0.569 -1.552 0.543 -2.121 -0.058 c -0.57 -0.601 -0.544 -1.551 0.057 -2.12 c 6.367 -6.032 13.098 -6.03 19.463 0 c 5.231 4.957 10.105 4.957 15.336 0 c 6.367 -6.032 13.097 -6.032 19.463 0 c 5.233 4.958 10.105 4.956 15.337 0 c 6.367 -6.033 13.1 -6.031 19.463 0 c 0.602 0.569 0.627 1.52 0.058 2.12 c -0.569 0.604 -1.52 0.627 -2.12 0.058 c -5.232 -4.955 -10.104 -4.957 -15.338 0 C 68.948 76.315 65.674 77.823 62.4 77.824 z" style="stroke: none; stroke-width: 1; stroke-dasharray: none; stroke-linecap: butt; stroke-linejoin: miter; stroke-miterlimit: 10; fill: rgb(0,0,0); fill-rule: nonzero; opacity: 1;" transform=" matrix(1 0 0 1 0 0) " stroke-linecap="round" />
	<path d="M 89.531 51.35 c -6.363 -6.031 -13.096 -6.033 -19.463 0 c -1.569 1.487 -3.106 2.518 -4.63 3.113 l -19.996 -38 c -1.377 -2.649 -4.087 -4.295 -7.073 -4.295 H 11.107 c -3.765 0 -6.827 3.063 -6.827 6.827 v 3.116 c 0 3.765 3.063 6.827 6.827 6.827 h 18.352 c 1.156 0 2.206 0.636 2.741 1.66 l 3.054 5.846 c 0.001 0.001 0.001 0.003 0.002 0.004 l 1.673 3.201 L 18.155 49.848 c -5.833 -4.461 -11.909 -3.972 -17.687 1.501 c -0.601 0.569 -0.627 1.52 -0.057 2.12 c 0.569 0.602 1.518 0.627 2.121 0.058 c 4.791 -4.54 9.282 -4.908 14.021 -1.135 c 0.005 0.009 0.007 0.018 0.011 0.027 c 0.191 0.352 0.503 0.593 0.856 0.708 c 0.149 0.134 0.298 0.258 0.448 0.4 c 6.367 6.031 13.097 6.031 19.463 0 c 5.231 -4.957 10.105 -4.957 15.337 0 c 3.183 3.016 6.457 4.523 9.731 4.523 c 0.853 0 1.707 -0.108 2.558 -0.313 c 0.087 -0.016 0.172 -0.042 0.257 -0.074 c 2.329 -0.617 4.646 -1.986 6.915 -4.136 c 5.234 -4.957 10.105 -4.955 15.338 0 c 0.601 0.569 1.551 0.545 2.12 -0.058 C 90.158 52.869 90.133 51.919 89.531 51.35 z M 35.268 51.35 c -5.01 4.747 -9.693 4.934 -14.675 0.589 l 17.725 -9.631 l 0.883 1.69 c 0.268 0.513 0.79 0.806 1.331 0.806 c 0.234 0 0.471 -0.055 0.693 -0.171 c 0.734 -0.384 1.018 -1.29 0.635 -2.024 l -1.704 -3.262 l -5.296 -10.138 c -1.054 -2.017 -3.124 -3.271 -5.4 -3.271 H 11.107 c -2.11 0 -3.827 -1.717 -3.827 -3.827 v -3.116 c 0 -2.11 1.717 -3.827 3.827 -3.827 h 27.261 c 1.862 0 3.552 1.026 4.415 2.686 l 19.582 37.211 c -2.514 -0.011 -5.029 -1.248 -7.634 -3.715 C 48.365 45.317 41.635 45.317 35.268 51.35 z" style="stroke: none; stroke-width: 1; stroke-dasharray: none; stroke-linecap: butt; stroke-linejoin: miter; stroke-miterlimit: 10; fill: rgb(0,0,0); fill-rule: nonzero; opacity: 1;" transform=" matrix(1 0 0 1 0 0) " stroke-linecap="round" />
	<path d="M 71.436 44.804 c -7.323 0 -13.281 -5.958 -13.281 -13.281 s 5.958 -13.281 13.281 -13.281 s 13.281 5.958 13.281 13.281 S 78.759 44.804 71.436 44.804 z M 71.436 21.241 c -5.669 0 -10.281 4.612 -10.281 10.281 s 4.612 10.281 10.281 10.281 s 10.281 -4.612 10.281 -10.281 S 77.104 21.241 71.436 21.241 z" style="stroke: none; stroke-width: 1; stroke-dasharray: none; stroke-linecap: butt; stroke-linejoin: miter; stroke-miterlimit: 10; fill: rgb(0,0,0); fill-rule: nonzero; opacity: 1;" transform=" matrix(1 0 0 1 0 0) " stroke-linecap="round" />
</g>
</svg>